<?xml version="1.0" encoding="utf-8"?>
<!-- Generator: Adobe Illustrator 15.0.2, SVG Export Plug-In . SVG Version: 6.00 Build 0)  -->
<!DOCTYPE svg PUBLIC "-//W3C//DTD SVG 1.1//EN" "http://www.w3.org/Graphics/SVG/1.1/DTD/svg11.dtd">
<svg version="1.1" id="Layer_1" xmlns="http://www.w3.org/2000/svg" xmlns:xlink="http://www.w3.org/1999/xlink" x="0px" y="0px"
	 width="252px" height="93.6px" viewBox="0 0 252 93.6" enable-background="new 0 0 252 93.6" xml:space="preserve">
<polygon fill="#B5121B" points="2.218,39.788 25.512,3.279 42.466,3.279 42.466,17.06 51.112,3.279 67.46,3.279 67.46,39.788 
	55.378,39.788 55.378,22.081 40.049,22.081 40.049,39.788 29.705,39.788 29.705,22.081 14.489,22.081 14.489,39.788 "/>
<polygon fill="#B5121B" points="67.611,54.174 44.352,90.722 27.4,90.722 27.4,76.941 18.756,90.722 2.407,90.722 2.407,54.174 
	14.489,54.174 14.489,71.879 29.705,71.879 29.705,54.174 40.163,54.174 40.163,71.879 55.378,71.879 55.378,54.174 "/>
<polyline points="100.533,3.28 100.533,9.697 94.794,9.697 94.794,3.279 92.53,3.279 92.53,18.683 94.794,18.683 94.794,11.962 
	100.533,11.962 100.533,11.963 100.533,18.684 102.799,18.684 102.799,3.28 100.533,3.28 "/>
<path d="M192.609,16.003c2.003-2.24,2.424-5.822,1.164-8.533c-1.355-2.917-4.67-4.192-7.722-4.192h-3.891v15.404h3.059
	C187.883,18.683,190.76,18.068,192.609,16.003 M184.54,5.582c1.681,0,3.293-0.152,4.874,0.575c1.796,0.818,2.688,2.574,2.781,4.489
	c0.218,4.456-3.66,6.308-7.655,5.77V5.582"/>
<path d="M113.824,3.279l-0.057,0.083l-10.629,15.322h3.022l3.284-4.795h4.38v4.795h2.378V3.279H113.824 M113.824,11.812h-2.945
	l2.945-4.039V11.812"/>
<path d="M117.788,3.279h3.134l4.607,12.499l4.379-12.499h3.211v15.404h-2.266V6.829l-4.229,11.854h-2.267l-4.302-11.931v11.931
	c-0.747,0-1.495,0-2.241,0c-0.057,0-0.026-0.692-0.026-0.762c0-1.726,0-3.452,0-5.177C117.788,9.589,117.788,6.434,117.788,3.279"/>
<path d="M134.816,3.279h3.096l4.568,12.499l4.529-12.499h3.136v15.404h-2.188V6.829l-4.382,11.854h-2.19l-4.38-11.931v11.931
	c-0.72,0-1.441,0-2.162,0c-0.059,0-0.026-0.688-0.026-0.762c0-1.726,0-3.452,0-5.177C134.816,9.589,134.816,6.434,134.816,3.279"/>
<path d="M168.532,3.279h2.266l7.246,11.062V3.279h2.383v15.404h-2.383l-7.246-10.685v10.685c-0.749,0-1.493,0-2.24,0
	c-0.057,0-0.025-0.692-0.025-0.762c0-1.726,0-3.452,0-5.177C168.532,9.589,168.532,6.434,168.532,3.279"/>
<path d="M159.529,2.936h-0.016c-4.409,0-7.967,3.88-7.795,8.249c0.163,4.111,3.629,7.572,7.774,7.572h0.036
	c4.302-0.038,7.891-3.568,7.891-7.891v-0.001C167.42,6.578,163.834,2.936,159.529,2.936z M163.283,15.012
	c-3.561,3.07-9.27,0.618-9.271-4.14c0.001-3.02,2.53-5.552,5.512-5.552h0.009C164.503,5.321,167.118,11.706,163.283,15.012z"/>
<g>
	<path d="M170.867,36.168c-3.906,3.651-10.281-0.096-9.185-5.268c0.954-4.511,6.83-5.982,9.725-2.332h2.797
		c-1.608-3.26-5.358-4.977-8.88-4.173c-3.859,0.882-6.492,4.639-6.064,8.558c0.313,3.475,3.216,6.375,6.641,6.879
		c3.531,0.54,7.092-1.361,8.454-4.695h-2.606C171.493,35.514,171.198,35.861,170.867,36.168"/>
	<path d="M136.067,39.856c3.06,0,4.91-2.379,4.91-4.794V24.263h-2.302c0,2.995,0,5.99,0,8.985c0,1.217,0.236,2.763-0.776,3.661
		c-1.614,1.43-4.437,0.409-4.437-1.847V24.263h-2.191c0,2.689,0,5.377,0,8.065c0,0.999-0.049,2.014,0.01,3.012
		C131.429,37.874,133.533,39.856,136.067,39.856"/>
	<path d="M93.142,35.551l7.55-11.287h2.115v15.517h-2.342v-10.95l-7.323,10.95h-2.378v-10.95l-7.251,10.95h-2.945l10.459-15.517
		c0.506,0,2.115,0,2.115,0S93.142,33.085,93.142,35.551"/>
	<path d="M116.36,24.264v-0.001h-2.265l-0.216,0.313l-9.942,14.338l-0.603,0.868h3.022l3.359-4.833h4.379v4.833h2.266L116.36,24.264
		L116.36,24.264 M111.076,32.874l3.02-4.042l-0.074,4.042H111.076"/>
	<path d="M117.795,24.263h2.379l7.249,11.024V24.263h2.188v15.519h-2.188l-7.249-10.723v10.723h-2.379c0,0,0-4.246,0-5.983
		C117.795,30.62,117.795,27.442,117.795,24.263"/>
	<path d="M142.563,24.263v15.519h2.268v-6.759h3.623v-2.265h-3.623v-4.115h4.719v-2.378
		C149.549,24.264,144.332,24.263,142.563,24.263"/>
	<path d="M156.118,24.263l-0.142,0.204l-10.62,15.314h3.021l3.361-4.833h4.38v4.833h2.228V24.263H156.118 M156.043,32.874h-2.947
		l3.022-4.042L156.043,32.874"/>
	<path d="M174.354,26.643h2.604v13.139h2.381V26.643h2.681v-2.38c-1.85,0-3.698,0-5.547,0c-0.703,0-1.407,0-2.109,0
		C174.346,24.263,174.354,26.41,174.354,26.643"/>
	<path d="M187.906,39.856c2.944,0,4.796-2.379,4.796-4.794V24.263h-2.19c0,2.995,0,5.99,0,8.985c0,1.23,0.235,2.763-0.8,3.661
		c-1.632,1.417-4.411,0.426-4.411-1.847V24.263h-2.264c0,2.689,0,5.377,0,8.065c0,0.999-0.049,2.014,0.008,3.012
		C183.196,37.915,185.352,39.856,187.906,39.856"/>
	<path d="M200.481,33.778c2.353,0,3.82-3.56,3.587-5.46c-0.293-2.415-2.42-4.055-4.797-4.055h-4.945v15.519h2.267V32.42l4.55,6.989
		l0.242,0.373h2.949L200.481,33.778 M196.516,31.664l0.077-5.021h2.263c1.853,0,3.142,1.248,2.721,3.157
		c0,0.001-0.001,0.001-0.001,0.002c-0.279,1.259-1.432,1.863-2.644,1.863H196.516"/>
	<path d="M209.239,24.263h2.343l7.171,11.024V24.263h2.344v15.519h-2.267l-7.248-10.723v10.723c-0.772,0-1.544,0-2.315,0
		c-0.058,0-0.027-0.696-0.027-0.768c0-1.739,0-3.478,0-5.215C209.239,30.62,209.239,27.442,209.239,24.263"/>
	<path d="M207.806,24.263h-2.38V39.78c0.784,0,1.568,0,2.354,0c0.059,0,0.026-0.695,0.026-0.768c0-1.738,0-3.477,0-5.214
		C207.806,30.619,207.806,27.442,207.806,24.263"/>
	<path d="M229.174,31.777v2.264h5.89c-2.05,4.949-9.413,4.458-10.621-0.809c-0.574-2.504,0.733-5.109,3.021-6.228
		c2.368-1.158,5.171-0.401,6.846,1.563h2.719c-1.856-3.767-6.529-5.507-10.372-3.769c-3.563,1.612-5.424,5.768-4.271,9.507
		c1.135,3.679,4.887,6.046,8.694,5.456c3.775-0.587,6.703-3.926,6.703-7.76v-0.225H229.174"/>
</g>
<g>
	<g>
		<g>
			<path d="M241.774,33.759c0.501,0,0.991,0.129,1.471,0.388c0.48,0.259,0.855,0.63,1.124,1.113
				c0.269,0.483,0.404,0.986,0.404,1.509c0,0.518-0.133,1.015-0.396,1.493c-0.265,0.478-0.636,0.85-1.113,1.117
				c-0.477,0.267-0.971,0.4-1.482,0.4c-0.518,0-1.015-0.133-1.492-0.4c-0.477-0.267-0.848-0.64-1.11-1.117
				c-0.265-0.478-0.396-0.975-0.396-1.493c0-0.523,0.135-1.026,0.404-1.509c0.27-0.483,0.645-0.854,1.122-1.113
				C240.791,33.889,241.277,33.759,241.774,33.759z M241.774,34.231c-0.422,0-0.833,0.11-1.236,0.328
				c-0.402,0.219-0.717,0.533-0.942,0.941c-0.228,0.408-0.341,0.832-0.341,1.269c0,0.432,0.112,0.85,0.336,1.253
				c0.225,0.403,0.536,0.716,0.936,0.94c0.4,0.224,0.816,0.336,1.248,0.336c0.437,0,0.854-0.112,1.255-0.336
				c0.399-0.224,0.712-0.537,0.936-0.94c0.225-0.403,0.337-0.821,0.337-1.253c0-0.438-0.114-0.861-0.341-1.269
				s-0.541-0.722-0.943-0.941C242.614,34.341,242.2,34.231,241.774,34.231z M240.583,35.192h1.15c0.475,0,0.813,0.064,1.017,0.192
				c0.266,0.176,0.398,0.416,0.398,0.72c0,0.176-0.044,0.327-0.134,0.453c-0.092,0.125-0.235,0.223-0.434,0.292
				c0.171,0.075,0.301,0.188,0.389,0.34c0.087,0.152,0.135,0.372,0.14,0.661c0,0.127,0.005,0.217,0.017,0.268
				c0.01,0.051,0.031,0.113,0.063,0.188h-0.608c-0.048-0.096-0.071-0.218-0.071-0.368c-0.011-0.277-0.038-0.464-0.084-0.561
				c-0.046-0.096-0.121-0.167-0.228-0.216c-0.112-0.048-0.31-0.072-0.593-0.072h-0.415v1.217h-0.607V35.192z M241.19,36.609h0.52
				c0.324,0,0.547-0.044,0.664-0.132c0.116-0.088,0.176-0.204,0.176-0.348c0-0.144-0.055-0.256-0.164-0.336
				c-0.109-0.081-0.34-0.12-0.692-0.12h-0.503V36.609z"/>
		</g>
	</g>
</g>
</svg>
